<svg width="48" height="48" viewBox="0 0 48 48" fill="none" xmlns="http://www.w3.org/2000/svg">
<rect width="48" height="48" fill="#323238"/>
<path d="M10 10H40V38H10V10Z" fill="white" stroke="#323238"/>
<path d="M37.1072 8H10.8672C10.1044 8.00675 9.37519 8.3145 8.83821 8.85628C8.30123 9.39805 7.99997 10.13 8 10.8928L8 37.1328C8.00675 37.8956 8.3145 38.6248 8.85628 39.1618C9.39805 39.6988 10.13 40 10.8928 40H37.1328C37.8956 39.9932 38.6248 39.6855 39.1618 39.1437C39.6988 38.6019 40 37.87 40 37.1072V10.8672C39.9932 10.1044 39.6855 9.37519 39.1437 8.83821C38.6019 8.30123 37.87 7.99997 37.1072 8V8ZM17.9072 35.6288C17.9072 35.8529 17.8182 36.0677 17.6598 36.2262C17.5013 36.3846 17.2865 36.4736 17.0624 36.4736H13.472C13.2479 36.4736 13.0331 36.3846 12.8746 36.2262C12.7162 36.0677 12.6272 35.8529 12.6272 35.6288V20.6016C12.6272 20.3775 12.7162 20.1627 12.8746 20.0042C13.0331 19.8458 13.2479 19.7568 13.472 19.7568H17.056C17.2801 19.7568 17.4949 19.8458 17.6534 20.0042C17.8118 20.1627 17.9008 20.3775 17.9008 20.6016L17.9072 35.6288ZM15.2704 18.3488C14.597 18.3488 13.9387 18.1491 13.3788 17.775C12.8189 17.4009 12.3825 16.8691 12.1248 16.247C11.8671 15.6248 11.7996 14.9402 11.931 14.2798C12.0624 13.6193 12.3867 13.0126 12.8628 12.5364C13.339 12.0603 13.9457 11.736 14.6062 11.6046C15.2666 11.4732 15.9512 11.5407 16.5734 11.7984C17.1955 12.0561 17.7273 12.4925 18.1014 13.0524C18.4755 13.6123 18.6752 14.2706 18.6752 14.944C18.6744 15.3911 18.5855 15.8337 18.4136 16.2465C18.2417 16.6592 17.9902 17.0341 17.6734 17.3497C17.3567 17.6653 16.9809 17.9153 16.5674 18.0857C16.154 18.256 15.7111 18.3432 15.264 18.3424L15.2704 18.3488ZM36.6464 35.7056C36.6464 35.911 36.5648 36.108 36.4196 36.2532C36.2744 36.3984 36.0774 36.48 35.872 36.48H32.032C31.8266 36.48 31.6296 36.3984 31.4844 36.2532C31.3392 36.108 31.2576 35.911 31.2576 35.7056V28.6656C31.2576 27.616 31.5648 24.0576 28.512 24.0576C26.1376 24.0576 25.6576 26.4896 25.5616 27.584V35.6992C25.5616 35.9046 25.48 36.1016 25.3348 36.2468C25.1896 36.392 24.9926 36.4736 24.7872 36.4736H21.0496C20.8442 36.4736 20.6472 36.392 20.502 36.2468C20.3568 36.1016 20.2752 35.9046 20.2752 35.6992V20.5312C20.2752 20.3258 20.3568 20.1288 20.502 19.9836C20.6472 19.8384 20.8442 19.7568 21.0496 19.7568H24.768C24.9734 19.7568 25.1704 19.8384 25.3156 19.9836C25.4608 20.1288 25.5424 20.3258 25.5424 20.5312V21.8112C26.4256 20.5248 27.7312 19.52 30.5152 19.52C36.6784 19.52 36.64 25.28 36.64 28.4416V35.6992L36.6464 35.7056Z" fill="#323238"/>
</svg>
